<?xml version="1.0" encoding="utf-8"?>
<!-- Generator: Adobe Illustrator 24.3.0, SVG Export Plug-In . SVG Version: 6.00 Build 0)  -->
<svg version="1.1" id="Layer_1" xmlns="http://www.w3.org/2000/svg" xmlns:xlink="http://www.w3.org/1999/xlink" x="0px" y="0px"
	 viewBox="0 0 308.7 14.5" style="enable-background:new 0 0 308.7 14.5;" xml:space="preserve">
<g>
	<g>
		<polygon points="299,9.1 295.7,8.7 14.3,8.7 9.9,9.1 9.9,5.4 14.1,5.7 295.6,5.7 299,5.4 		"/>
	</g>
	<path d="M300.1,9.8l4.4,2.7v-1.6l0,0c0.1-0.9,0.1-1.7,0.7-2.2l1.9-1.3l-1.9-1.3c-0.5-0.5-0.8-1.1-0.7-2.3l0,0V2.2l-4.4,2.7V9.8z"/>
	<path d="M8.6,4.7L4.2,2.1v1.6l0,0c0,0.9-0.1,1.7-0.7,2.2L1.6,7.3l1.9,1.3C4,9,4.3,9.7,4.2,10.8l0,0v1.6l4.4-2.7V4.7z"/>
</g>
</svg>
